# AST/ASF file generated using VICON BodyLanguage
# -----------------------------------------------
:version 1.10
:name VICON
:units
  mass 1.0
  length 0.45
  angle deg
:documentation
   .ast/.asf automatically generated from VICON data using
   VICON BodyBuilder and BodyLanguage model FoxedUp or BRILLIANT.MOD
:root
   order TX TY TZ RX RY RZ
   axis XYZ
   position 0 0 0  
   orientation 0 0 0 
:bonedata
  begin
     id 1 
     name lhipjoint
     direction 0.623529 -0.717805 0.309788 
     length 2.23224 
     axis 0 0 0  XYZ
  end
  begin
     id 2 
     name lfemur
     direction 0.34202 -0.939693 0  
     length 7.11402  
     axis 0 0 20  XYZ
    dof rx ry rz
    limits (-160.0 20.0)
           (-70.0 70.0)
           (-60.0 70.0)
  end
  begin
     id 3 
     name ltibia
     direction 0.34202 -0.939693 0   
     length 6.78496   
     axis 0 0 20   XYZ
    dof rx
    limits (-10.0 170.0)
  end
  begin
     id 4 
     name lfoot
     direction 0.125078 -0.343648 0.930732   
     length 1.84054   
     axis -90 7.62852e-016 20   XYZ
    dof rx rz
    limits (-45.0 90.0)
           (-70.0 20.0)
  end
  begin
     id 5 
     name ltoes
     direction 1.53565e-011 -4.21893e-011 1   
     length 0.916474   
     axis -90 7.62852e-016 20   XYZ
    dof rx
    limits (-90.0 20.0)
  end
  begin
     id 6 
     name rhipjoint
     direction -0.564688 -0.757748 0.327026   
     length 2.11457  
     axis 0 0 0  XYZ 
  end
  begin
     id 7 
     name rfemur
     direction -0.34202 -0.939693 0   
     length 7.14609   
     axis 0 0 -20   XYZ
    dof rx ry rz
    limits (-160.0 20.0)
           (-70.0 70.0)
           (-70.0 60.0)
  end
  begin
     id 8 
     name rtibia
     direction -0.34202 -0.939693 0   
     length 6.78101   
     axis 0 0 -20   XYZ
    dof rx
    limits (-10.0 170.0)
 end
 begin
     id 9 
     name rfoot
     direction -0.0992671 -0.272734 0.956955   
     length 1.96168  
     axis -90 -7.62852e-016 -20   XYZ
    dof rx rz
    limits (-45.0 90.0)
           (-20.0 70.0)
  end
  begin
     id 10 
     name rtoes
     direction -1.5356e-011 -4.21891e-011 1   
     length 0.982933   
     axis -90 -7.62852e-016 -20   XYZ
    dof rx
    limits (-90.0 20.0)
  end
  begin
     id 11 
     name lowerback
     direction -0.00596953 0.998668 0.0512524   
     length 1.87557   
     axis 0 0 0   XYZ
    dof rx ry rz
    limits (-20.0 45.0)
           (-30.0 30.0)
           (-30.0 30.0)
  end
  begin
     id 12 
     name upperback
     direction 0.00584879 0.999652 0.0257308   
     length 1.87883   
     axis 0 0 0   XYZ
    dof rx ry rz
    limits (-20.0 45.0)
           (-30.0 30.0)
           (-30.0 30.0)
  end
  begin
     id 13 
     name thorax
     direction 0.010104 0.999947 0.00178881   
     length 1.87779   
     axis 0 0 0   XYZ
    dof rx ry rz
    limits (-20.0 45.0)
           (-30.0 30.0)
           (-30.0 30.0)
  end
  begin
     id 14 
     name lowerneck
     direction 0.0120771 0.995934 -0.0892773   
     length 1.40897   
     axis 0 0 0   XYZ
    dof rx ry rz
    limits (-20.0 45.0)
           (-30.0 30.0)
           (-30.0 30.0)
  end
  begin
     id 15 
     name upperneck
     direction -0.030568 0.999465 -0.0116366   
     length 1.38661   
     axis 0 0 0   XYZ
    dof rx ry rz
    limits (-20.0 45.0)
           (-30.0 30.0)
           (-30.0 30.0)
  end
  begin
     id 16
     name head
     direction -0.0170715 0.999854 -0.00104426  
     length 1.47052  
     axis 0 0 0   XYZ
    dof rx ry rz
    limits (-20.0 45.0)
           (-30.0 30.0)
           (-30.0 30.0)
  end
  begin
     id 17 
     name lclavicle
     direction 0.977763 0.206143 0.038532  
     length 3.02424  
     axis 0 0 0   XYZ
    dof ry rz
    limits (-20.0 10.0)
           (0.0 20.0)
  end
  begin
     id 18 
     name lhumerus
     direction 1 -4.48965e-011 -2.62654e-027   
     length 4.68382   
     axis 180 -30 -90   XYZ
    dof rx ry rz
    limits (-60.0 90.0)
           (-90.0 90.0)
           (-90.0 90.0)
  end
  begin
     id 19
     name lradius
     direction 1 -4.48973e-011 -1.54954e-027   
     length 2.98124   
     axis 180 -30 -90   XYZ
    dof rx
    limits (-10.0 170.0)
  end
  begin
     id 20
     name lwrist
     direction 1 -4.48959e-011 7.20928e-028   
     length 1.49062   
     axis -5.52449e-016 90 90   XYZ
    dof ry
    limits (-180.0 0.0)
 end
  begin
     id 21 
     name lhand
     direction 1 -4.48971e-011 1.44186e-027   
     length 0.707595   
     axis -9.20027e-016 90 90   XYZ
    dof rx rz
    limits (-90.0 90.0)
           (-45.0 45.0)
  end
  begin
     id 22 
     name lfingers
     direction 1 -4.48985e-011 2.88371e-027   
     length 0.570481   
     axis -1.84005e-015 90 90   XYZ
    dof rx
    limits (0.0 90.0)
  end
  begin
     id 23
     name lthumb
     direction 0.707107 -6.34929e-011 0.707107   
     length 0.819101   
     axis -90 45 2.85299e-015   XYZ
    dof rx rz
    limits (-45.0 45.0)
           (-45.0 45.0)
  end
  begin
     id 24 
     name rclavicle
     direction -0.958661 0.284411 -0.00895327   
     length 3.11921  
     axis 0 0 0   XYZ 
    dof ry rz
    limits (-10.0 20.0)
           (-20.0 0.0)
  end
  begin
     id 25 
     name rhumerus
     direction -1 -4.48963e-011 -4.22193e-027  
     length 4.75876   
     axis 180 30 90   XYZ
    dof rx ry rz
    limits (-90.0 60.0)
           (-90.0 90.0)
           (-90.0 90.0)
  end
  begin
     id 26 
     name rradius
     direction -1 -4.48968e-011 -1.07616e-027   
     length 2.93293   
     axis 180 30 90   XYZ
    dof rx
    limits (-10.0 170.0)
  end
  begin
     id 27 
     name rwrist
     direction -1 -4.48965e-011 7.20928e-028   
     length 1.46647   
     axis -5.52449e-016 -90 -90   XYZ
    dof ry
    limits (-180.0 0.0)
  end
  begin
     id 28
     name rhand
     direction -1 -4.48971e-011 1.44186e-027   
     length 0.831748   
     axis -9.20027e-016 -90 -90   XYZ
    dof rx rz
    limits (-90.0 90.0)
           (-45.0 45.0)
  end
  begin
     id 29
     name rfingers
     direction -1 -4.48961e-011 2.88371e-027   
     length 0.670577   
     axis -1.84005e-015 -90 -90   XYZ
    dof rx
    limits (0.0 90.0)
  end
  begin
     id 30
     name rthumb
     direction -0.707107 -6.34929e-011 0.707107   
     length 0.962818   
     axis -90 -45 -2.85299e-015   XYZ
    dof rx rz
    limits (-45.0 45.0)
           (-45.0 45.0)
  end
:hierarchy
  begin
    root lhipjoint rhipjoint lowerback
    lhipjoint lfemur
    lfemur ltibia
    ltibia lfoot
    lfoot ltoes
    rhipjoint rfemur
    rfemur rtibia
    rtibia rfoot
    rfoot rtoes
    lowerback upperback
    upperback thorax
    thorax lowerneck lclavicle rclavicle
    lowerneck upperneck
    upperneck head
    lclavicle lhumerus
    lhumerus lradius
    lradius lwrist
    lwrist lhand lthumb
    lhand lfingers
    rclavicle rhumerus
    rhumerus rradius
    rradius rwrist
    rwrist rhand rthumb
    rhand rfingers
  end

#!OML:ASF E:\id_vita\Project 1\Capture day 1\Session 1\Female.ASF
:FULLY-SPECIFIED
:DEGREES
256
root -25.6082 15.0724 3.18516 20.9511 69.6996 -55.1452
lowerback 11.4069 5.54963 -9.23494
upperback 0.315099 5.81125 -4.54542
thorax -6.51202 3.02372 -0.671527
lowerneck -5.96154 0.427698 -4.35788
upperneck -38.7258 4.75298 4.99135
head -12.0923 3.73867 2.03392
rclavicle 6.12257e-014 -8.2595e-014
rhumerus 52.6434 15.0862 -59.3015
rradius 62.7603
rwrist 18.6081
rhand -47.6593 56.0323
rfingers 7.12502
rthumb -20.341 27.0775
lclavicle 6.12257e-014 -8.2595e-014
lhumerus 52.0959 -3.71875 49.1947
lradius 59.2423
lwrist -15.5777
lhand -55.9504 47.4647
lfingers 7.12502
lthumb -28.2888 75.3485
rfemur -63.7636 6.68072 49.338
rtibia 16.8995
rfoot -28.1502 4.51709
rtoes -5.27824
lfemur -116.902 21.8 -12.7668
ltibia 56.8017
lfoot -1.52776 3.06119
ltoes -0.0621569
257
root -25.5823 15.0705 3.19317 20.7722 69.7114 -55.1721
lowerback 11.3785 5.52814 -9.25061
upperback 0.285015 5.7856 -4.50095
thorax -6.53304 3.01376 -0.610734
lowerneck -5.75551 0.442544 -4.48506
upperneck -38.5477 4.74643 5.09304
head -12.056 3.71685 2.09676
rclavicle 3.4191e-014 -7.56376e-014
rhumerus 52.2465 15.4452 -59.3624
rradius 62.8187
rwrist 18.7599
rhand -47.8524 56.2798
rfingers 7.12502
rthumb -20.5266 27.3449
lclavicle 3.4191e-014 -7.56376e-014
lhumerus 51.5556 -3.8586 49.0365
lradius 59.3692
lwrist -15.5319
lhand -55.8989 47.258
lfingers 7.12502
lthumb -28.2396 75.1499
rfemur -63.4962 6.6255 49.2731
rtibia 16.8248
rfoot -28.1269 4.11481
rtoes -5.92374
lfemur -116.479 21.8349 -12.4722
ltibia 56.4084
lfoot -1.73254 3.27405
ltoes -0.611055
258
root -25.5561 15.0695 3.20113 20.4869 69.6853 -55.2648
lowerback 11.3315 5.54416 -9.19213
upperback 0.333016 5.82543 -4.4838
thorax -6.45334 3.02906 -0.623068
lowerneck -5.69067 0.513576 -4.4457
upperneck -38.4485 4.80928 5.0096
head -12.0256 3.73963 2.05176
rclavicle 8.90555e-014 -3.97569e-016
rhumerus 51.8929 15.6691 -59.4198
rradius 62.8331
rwrist 18.9025
rhand -48.1711 57.2982
rfingers 7.12502
rthumb -20.8328 28.3967
lclavicle 8.90555e-014 -3.97569e-016
lhumerus 51.1974 -4.01205 48.9076
lradius 59.4371
lwrist -15.5473
lhand -56.1587 48.0407
lfingers 7.12502
lthumb -28.4879 75.8914
rfemur -63.163 6.58386 49.2262
rtibia 16.7527
rfoot -28.1395 3.91738
rtoes -5.68219
lfemur -116.055 21.9203 -12.2346
ltibia 56.0615
lfoot -2.01886 3.3818
ltoes -0.612638
259
root -25.5283 15.069 3.20864 20.3848 69.5946 -55.1965
lowerback 11.2671 5.57338 -9.18931
upperback 0.402547 5.87751 -4.49686
thorax -6.34399 3.05047 -0.636296
lowerneck -5.62597 0.550456 -4.61418
upperneck -38.4009 4.87817 5.09821
head -12.0276 3.78149 2.10991
rclavicle 6.20208e-014 -3.02153e-014
rhumerus 51.8302 15.7712 -59.4138
rradius 62.6393
rwrist 18.9486
rhand -47.9397 57.5844
rfingers 7.12502
rthumb -20.6105 28.6587
lclavicle 6.20208e-014 -3.02153e-014
lhumerus 51.1109 -4.07003 48.7165
lradius 59.3517
lwrist -15.3976
lhand -56.3964 49.9181
lfingers 7.12502
lthumb -28.715 77.7305
rfemur -62.828 6.57755 49.0965
rtibia 16.6683
rfoot -28.2249 3.94904
rtoes -5.1626
lfemur -115.661 22.0221 -12.1287
ltibia 55.7312
lfoot -2.25337 3.52167
ltoes -0.525139
260
root -25.5069 15.0603 3.21537 20.5142 69.5395 -55.1983
lowerback 10.9648 5.52426 -9.20213
upperback 0.343925 5.84604 -4.54311
thorax -6.23181 3.03576 -0.645919
lowerneck -5.77017 0.578609 -4.6755
upperneck -38.1689 4.95829 5.26951
head -11.9093 3.80327 2.18368
rclavicle -6.2816e-014 -1.80894e-014
rhumerus 52.0071 15.9489 -59.4157
rradius 62.2412
rwrist 18.9392
rhand -47.9738 57.6724
rfingers 7.12502
rthumb -20.6432 28.7502
lclavicle -6.2816e-014 -1.80894e-014
lhumerus 50.9596 -4.13432 48.3167
lradius 59.2538
lwrist -15.4163
lhand -56.3581 51.6802
lfingers 7.12502
lthumb -28.6784 79.4988
rfemur -62.8235 6.71668 48.9752
rtibia 16.6164
rfoot -28.2913 3.72152
rtoes -5.7764
lfemur -115.642 22.1283 -12.1406
ltibia 55.3957
lfoot -2.50664 3.71963
ltoes -0.850201
261
root -25.4824 15.0537 3.2203 20.3733 69.5503 -55.3618
lowerback 10.8628 5.42317 -9.05989
upperback 0.226975 5.73233 -4.65009
thorax -6.2672 2.98039 -0.812256
lowerneck -5.83974 0.637685 -4.58916
upperneck -37.9212 5.12286 5.5537
head -11.8041 3.8277 2.2668
rclavicle 5.80451e-014 4.73108e-014
rhumerus 52.0294 16.2686 -59.6665
rradius 61.8672
rwrist 19.0606
rhand -47.3634 56.851
rfingers 7.12502
rthumb -20.0566 27.8662
lclavicle 5.80451e-014 4.73108e-014
lhumerus 50.4871 -4.37858 47.6983
lradius 59.3099
lwrist -15.6974
lhand -56.3863 53.199
lfingers 7.12502
lthumb -28.7053 81.013
rfemur -62.6911 6.74051 48.9276
rtibia 16.5494
rfoot -28.3633 3.4235
rtoes -6.52475
lfemur -115.52 22.1766 -12.1143
ltibia 55.0541
lfoot -2.85794 3.94844
ltoes -1.01643
